<svg id="visual" viewBox="0 0 1720 1080" width="1720" height="1080" xmlns="http://www.w3.org/2000/svg" xmlns:xlink="http://www.w3.org/1999/xlink" version="1.1"><path d="M0 596L23.8 607.3C47.7 618.7 95.3 641.3 143.2 667.8C191 694.3 239 724.7 286.8 742.2C334.7 759.7 382.3 764.3 430 760.8C477.7 757.3 525.3 745.7 573.2 735.5C621 725.3 669 716.7 716.8 700.3C764.7 684 812.3 660 860 657.3C907.7 654.7 955.3 673.3 1003.2 670.3C1051 667.3 1099 642.7 1146.8 640.7C1194.7 638.7 1242.3 659.3 1290 652.3C1337.7 645.3 1385.3 610.7 1433.2 616C1481 621.3 1529 666.7 1576.8 684.3C1624.7 702 1672.3 692 1696.2 687L1720 682L1720 1081L1696.2 1081C1672.3 1081 1624.7 1081 1576.8 1081C1529 1081 1481 1081 1433.2 1081C1385.3 1081 1337.7 1081 1290 1081C1242.3 1081 1194.7 1081 1146.8 1081C1099 1081 1051 1081 1003.2 1081C955.3 1081 907.7 1081 860 1081C812.3 1081 764.7 1081 716.8 1081C669 1081 621 1081 573.2 1081C525.3 1081 477.7 1081 430 1081C382.3 1081 334.7 1081 286.8 1081C239 1081 191 1081 143.2 1081C95.3 1081 47.7 1081 23.8 1081L0 1081Z" fill="#dba8a8"></path><path d="M0 852L23.8 848.7C47.7 845.3 95.3 838.7 143.2 828.3C191 818 239 804 286.8 807.5C334.7 811 382.3 832 430 847.2C477.7 862.3 525.3 871.7 573.2 858C621 844.3 669 807.7 716.8 783.2C764.7 758.7 812.3 746.3 860 744.7C907.7 743 955.3 752 1003.2 769.8C1051 787.7 1099 814.3 1146.8 837.8C1194.7 861.3 1242.3 881.7 1290 879.3C1337.7 877 1385.3 852 1433.2 838.7C1481 825.3 1529 823.7 1576.8 839.8C1624.7 856 1672.3 890 1696.2 907L1720 924L1720 1081L1696.2 1081C1672.3 1081 1624.7 1081 1576.8 1081C1529 1081 1481 1081 1433.2 1081C1385.3 1081 1337.7 1081 1290 1081C1242.3 1081 1194.7 1081 1146.8 1081C1099 1081 1051 1081 1003.2 1081C955.3 1081 907.7 1081 860 1081C812.3 1081 764.7 1081 716.8 1081C669 1081 621 1081 573.2 1081C525.3 1081 477.7 1081 430 1081C382.3 1081 334.7 1081 286.8 1081C239 1081 191 1081 143.2 1081C95.3 1081 47.7 1081 23.8 1081L0 1081Z" fill="#e2b5ad"></path><path d="M0 985L23.8 983.3C47.7 981.7 95.3 978.3 143.2 968C191 957.7 239 940.3 286.8 920.2C334.7 900 382.3 877 430 867.2C477.7 857.3 525.3 860.7 573.2 886.7C621 912.7 669 961.3 716.8 990.3C764.7 1019.3 812.3 1028.7 860 1014.5C907.7 1000.3 955.3 962.7 1003.2 936.2C1051 909.7 1099 894.3 1146.8 884.8C1194.7 875.3 1242.3 871.7 1290 881.5C1337.7 891.3 1385.3 914.7 1433.2 909.5C1481 904.3 1529 870.7 1576.8 876.7C1624.7 882.7 1672.3 928.3 1696.2 951.2L1720 974L1720 1081L1696.2 1081C1672.3 1081 1624.7 1081 1576.8 1081C1529 1081 1481 1081 1433.2 1081C1385.3 1081 1337.7 1081 1290 1081C1242.3 1081 1194.7 1081 1146.8 1081C1099 1081 1051 1081 1003.2 1081C955.3 1081 907.7 1081 860 1081C812.3 1081 764.7 1081 716.8 1081C669 1081 621 1081 573.2 1081C525.3 1081 477.7 1081 430 1081C382.3 1081 334.7 1081 286.8 1081C239 1081 191 1081 143.2 1081C95.3 1081 47.7 1081 23.8 1081L0 1081Z" fill="#e8c2b4"></path></svg>